<svg xmlns="http://www.w3.org/2000/svg" x="0px" y="0px" width="28" height="28" viewBox="0 0 24 24">
<path d="M 5.75 3 C 4.2400226 3 3 4.2400226 3 5.75 L 3 18.25 C 3 19.759977 4.2400226 21 5.75 21 L 18.25 21 C 19.759977 21 21 19.759977 21 18.25 L 21 5.75 C 21 4.2400226 19.759977 3 18.25 3 L 5.75 3 z M 5.75 4.5 L 18.25 4.5 C 18.950023 4.5 19.5 5.0499774 19.5 5.75 L 19.5 18.25 C 19.5 18.950023 18.950023 19.5 18.25 19.5 L 5.75 19.5 C 5.0499774 19.5 4.5 18.950023 4.5 18.25 L 4.5 5.75 C 4.5 5.0499774 5.0499774 4.5 5.75 4.5 z M 8.1855469 6.7851562 C 7.4445469 6.7851563 7 7.2293594 7 7.8183594 C 7 8.4113594 7.444375 8.8574219 8.109375 8.8574219 C 8.850375 8.8574219 9.2910156 8.4113594 9.2910156 7.8183594 C 9.2910156 7.2303594 8.8505469 6.7851562 8.1855469 6.7851562 z M 7.0625 9.9628906 L 7.0625 16 L 9.2363281 16 L 9.2363281 9.9628906 L 7.0625 9.9628906 z M 11.033203 9.9628906 L 11.033203 16 L 13.207031 16 L 13.207031 12.697266 C 13.207031 11.718266 13.908141 11.574219 14.119141 11.574219 C 14.330141 11.574219 14.892578 11.785266 14.892578 12.697266 L 14.892578 16 L 17 16 L 17 12.697266 C 17 10.806266 16.154516 9.9628906 15.103516 9.9628906 C 14.052516 9.9628906 13.490031 10.312641 13.207031 10.806641 L 13.207031 9.9628906 L 11.033203 9.9628906 z"></path>
</svg>