<?xml version="1.0" encoding="UTF-8" standalone="no"?>
<!-- Created with Inkscape (http://www.inkscape.org/) -->

<svg
   xmlns:dc="http://purl.org/dc/elements/1.1/"
   xmlns:cc="http://creativecommons.org/ns#"
   xmlns:rdf="http://www.w3.org/1999/02/22-rdf-syntax-ns#"
   xmlns:svg="http://www.w3.org/2000/svg"
   xmlns="http://www.w3.org/2000/svg"
   xmlns:sodipodi="http://sodipodi.sourceforge.net/DTD/sodipodi-0.dtd"
   xmlns:inkscape="http://www.inkscape.org/namespaces/inkscape"
   width="744.09448819"
   height="1052.3622047"
   id="svg2"
   version="1.1"
   inkscape:version="0.48+devel r9772"
   sodipodi:docname="New document 1">
  <defs
     id="defs4" />
  <sodipodi:namedview
     id="base"
     pagecolor="#ffffff"
     bordercolor="#666666"
     borderopacity="1.0"
     inkscape:pageopacity="0.0"
     inkscape:pageshadow="2"
     inkscape:zoom="0.60150394"
     inkscape:cx="372.04724"
     inkscape:cy="526.18109"
     inkscape:document-units="px"
     inkscape:current-layer="layer1"
     showgrid="false"
     inkscape:window-width="1440"
     inkscape:window-height="851"
     inkscape:window-x="0"
     inkscape:window-y="1"
     inkscape:window-maximized="1" />
  <metadata
     id="metadata7">
    <rdf:RDF>
      <cc:Work
         rdf:about="">
        <dc:format>image/svg+xml</dc:format>
        <dc:type
           rdf:resource="http://purl.org/dc/dcmitype/StillImage" />
        <dc:title></dc:title>
      </cc:Work>
    </rdf:RDF>
  </metadata>
  <g
     inkscape:label="Layer 1"
     inkscape:groupmode="layer"
     id="layer1">
    <g
       id="g3862"
       transform="matrix(2.3879276,0,0,2.3879276,-125.63669,-574.6821)">
      <path
         sodipodi:nodetypes="csccsccccccsccc"
         id="path3852"
         d="M 58.603796,342.49017 245.97671,299.06206 c 31.25164,-7.2433 56.04003,0.48494 72.82229,11.46952 16.93018,10.95622 25.39541,26.9628 25.39573,48.01978 -3.2e-4,17.66122 -6.01509,33.98433 -18.04433,48.96937 -8.02002,9.99043 -19.75253,18.94011 -35.1976,26.84908 23.46478,0.5769 40.69227,6.10853 51.68255,16.59496 11.13814,10.32192 16.70737,24.9925 16.70773,44.01181 -3.6e-4,15.48743 -3.93595,30.18152 -11.8068,44.08233 -7.87151,13.90102 -18.6387,25.78668 -32.30159,35.65703 -8.46554,6.13757 -21.23764,11.89409 -38.31637,17.26956 -22.72274,7.15775 -37.7968,11.46221 -45.22223,12.91333 l -106.87467,20.88642 -0.83118,-0.14154 -66.49998,-45.43138"
         style="font-size:329.3269043px;font-style:normal;font-variant:normal;font-weight:900;font-stretch:normal;text-align:start;line-height:125%;letter-spacing:0px;word-spacing:0px;writing-mode:lr-tb;text-anchor:start;fill:#333333;fill-opacity:1;stroke:none;font-family:Arial Black;-inkscape-font-specification:'Arial Black, Heavy'"
         inkscape:connector-curvature="0" />
      <path
         id="path3850"
         d="m 159.29597,437.47978 43.88561,-8.57652 c 15.7422,-3.07631 26.65788,-7.6549 32.74713,-13.73583 6.23733,-6.24534 9.3561,-14.05506 9.35633,-23.42921 -2.3e-4,-8.69434 -3.119,-14.87751 -9.35633,-18.5495 -6.08925,-3.70049 -16.78217,-4.05614 -32.07882,-1.06695 l -44.55392,8.70712 0,56.65089"
         style="font-size:329.3269043px;font-style:normal;font-variant:normal;font-weight:900;font-stretch:normal;text-align:start;line-height:125%;letter-spacing:0px;word-spacing:0px;writing-mode:lr-tb;text-anchor:start;fill:#333333;fill-opacity:1;stroke:none;font-family:Arial Black;-inkscape-font-specification:'Arial Black, Heavy'"
         inkscape:connector-curvature="0" />
      <path
         id="path3844"
         d="m 159.29597,554.85716 51.45978,-10.05673 c 17.37581,-3.39568 29.62813,-8.57512 36.75698,-15.53837 7.1284,-7.09886 10.6927,-15.40321 10.69294,-24.91308 -2.4e-4,-8.83033 -3.56454,-15.19814 -10.69294,-19.10344 -6.98034,-4.06986 -19.30691,-4.37795 -36.97976,-0.92428 l -51.237,10.01319 0,60.52271"
         style="font-size:329.3269043px;font-style:normal;font-variant:normal;font-weight:900;font-stretch:normal;text-align:start;line-height:125%;letter-spacing:0px;word-spacing:0px;writing-mode:lr-tb;text-anchor:start;fill:#333333;fill-opacity:1;stroke:none;font-family:Arial Black;-inkscape-font-specification:'Arial Black, Heavy'"
         inkscape:connector-curvature="0" />
      <path
         d="m 57.49026,578.31207 0,-235.73889 121.40713,-29.59526 c 22.51241,-5.48758 39.71844,-7.75222 51.61813,-6.79393 11.8993,0.95885 21.49394,5.80256 28.78395,14.53113 7.28955,8.62191 10.93444,20.43691 10.93468,35.44505 -2.4e-4,13.07896 -2.78751,25.06829 -8.36182,35.96803 -5.57476,10.79292 -13.23975,20.3264 -22.99499,28.60045 -6.21796,5.26795 -14.74057,10.45438 -25.56786,15.55928 8.68323,0.77788 15.00819,2.13053 18.97489,4.05795 2.67987,1.27647 6.53916,4.463 11.5779,9.55959 5.14552,5.07072 8.576,9.1122 10.29146,12.12444 l 35.21611,59.75718 -82.33172,20.06989 -38.91461,-62.55409 c -4.93146,-8.12443 -9.32676,-13.10994 -13.18594,-14.95655 -5.25305,-2.36427 -11.2028,-2.73635 -17.84926,-1.11625 l -6.43216,1.56796 0,95.67847 -73.16589,17.83555 m 73.16589,-158.05677 30.71359,-7.48701 c 3.32315,-0.80994 9.75531,-3.44993 19.2965,-7.91997 4.82397,-2.14061 8.73687,-5.56011 11.7387,-10.25851 3.10872,-4.72416 4.66316,-9.6592 4.66332,-14.80514 -1.6e-4,-7.61118 -2.41222,-12.86574 -7.23619,-15.76369 -4.82427,-2.89751 -13.8829,-2.72615 -27.1759,0.51407 l -32.00002,7.80061 0,47.91964"
         style="font-size:329.3269043px;font-style:normal;font-variant:normal;font-weight:900;font-stretch:normal;text-align:start;line-height:125%;letter-spacing:0px;word-spacing:0px;writing-mode:lr-tb;text-anchor:start;fill:#ffffff;fill-opacity:1;stroke:none;font-family:Arial Black;-inkscape-font-specification:'Arial Black, Heavy'"
         id="path3842"
         inkscape:connector-curvature="0" />
    </g>
  </g>
</svg>
