<?xml version="1.0" encoding="UTF-8"?>
<svg version="1.1" xmlns="http://www.w3.org/2000/svg" width="148" height="136">
<path d="M0 0 C5.85983694 4.11352792 9.65608803 8.6392935 11.609375 15.59375 C12.52866564 23.52820997 12.07424196 30.37527717 8.609375 37.59375 C7.949375 37.59375 7.289375 37.59375 6.609375 37.59375 C6.37992188 38.35171875 6.15046875 39.1096875 5.9140625 39.890625 C4.32757423 43.17760069 2.88351894 44.06826825 -0.265625 45.84375 C-1.12929687 46.34390625 -1.99296875 46.8440625 -2.8828125 47.359375 C-9.63045644 50.68064522 -18.42688704 50.83840417 -25.578125 48.59375 C-32.30941777 45.5723973 -37.9135733 40.52626225 -40.953125 33.78125 C-43.80592263 25.2621158 -43.06986524 17.65977669 -39.390625 9.59375 C-39.1121875 8.93375 -38.83375 8.27375 -38.546875 7.59375 C-35.32566713 2.02193098 -28.4516363 -2.04905135 -22.41796875 -3.97265625 C-14.3609642 -5.69583063 -7.04671079 -4.14512399 0 0 Z " fill="#FC8A06" transform="translate(122.390625,74.40625)"/>
<path d="M0 0 C1.30904297 0.00349709 1.30904297 0.00349709 2.64453125 0.00706482 C4.48707879 0.01679528 6.32959671 0.03856646 8.171875 0.0715332 C10.99003457 0.12091911 13.80644686 0.13301312 16.625 0.13867188 C18.41668521 0.15275953 20.20835528 0.16896453 22 0.1875 C22.84175781 0.1928627 23.68351562 0.1982254 24.55078125 0.20375061 C25.33839844 0.21973801 26.12601563 0.2357254 26.9375 0.25219727 C27.62714844 0.26283707 28.31679688 0.27347687 29.02734375 0.28443909 C31.37321808 0.61046263 32.98433368 1.32613066 35 2.55859375 C36.70520583 5.96900542 36.18493888 9.86392914 36.203125 13.6171875 C36.20882507 14.51728043 36.21452515 15.41737335 36.22039795 16.34474182 C36.22985201 18.25040509 36.23638354 20.15608475 36.24023438 22.06176758 C36.2499495 24.98092025 36.28097267 27.89937176 36.3125 30.81835938 C36.31902902 32.66796456 36.32427989 34.51757479 36.328125 36.3671875 C36.3404718 37.24225449 36.3528186 38.11732147 36.36553955 39.01890564 C36.36253845 39.83307449 36.35953735 40.64724335 36.35644531 41.48608398 C36.36191376 42.55958351 36.36191376 42.55958351 36.36749268 43.6547699 C35.88507991 46.15394605 34.99799565 47.02149761 33 48.55859375 C27.82598117 49.69054791 22.77115211 49.654367 17.51171875 49.5078125 C16.72730911 49.48894485 15.94289948 49.47007721 15.13471985 49.45063782 C13.49004246 49.40902623 11.8454407 49.36431977 10.20092773 49.31665039 C7.67771826 49.24581916 5.15449638 49.19180365 2.63085938 49.13867188 C1.02861845 49.09606989 -0.57359672 49.05248521 -2.17578125 49.0078125 C-2.93095535 48.99312424 -3.68612946 48.97843597 -4.46418762 48.96330261 C-9.77089377 48.78769998 -9.77089377 48.78769998 -12 46.55859375 C-13.27908289 38.93360927 -13.25232553 31.19720673 -13.29516602 23.48242188 C-13.30677989 22.02594359 -13.327377 20.56951085 -13.35668945 19.11328125 C-13.39935215 16.98538962 -13.41551807 14.85873461 -13.42578125 12.73046875 C-13.44036377 11.47331055 -13.45494629 10.21615234 -13.4699707 8.92089844 C-12.27016643 0.33715584 -7.47545152 -0.17346189 0 0 Z " fill="#FED102" transform="translate(34,72.44140625)"/>
<path d="M0 0 C7.05418325 2.68058964 10.07136015 10.77769541 13.4140625 17.109375 C16.07365156 21.89420646 19.07973254 26.44363505 22.07421875 31.0234375 C23.08935547 32.58964844 23.08935547 32.58964844 24.125 34.1875 C24.70121094 35.074375 25.27742188 35.96125 25.87109375 36.875 C27.63398182 40.12618298 27.528762 42.55364203 27.125 46.1875 C25.68821954 48.34267069 24.75923996 48.99027141 22.3049469 49.753479 C19.96720267 50.21891698 17.87849939 50.28943981 15.49584961 50.25683594 C14.58488022 50.24642273 13.67391083 50.23600952 12.7353363 50.22528076 C11.27112999 50.19884491 11.27112999 50.19884491 9.77734375 50.171875 C8.76910049 50.15537903 7.76085724 50.13888306 6.72206116 50.12188721 C4.5928913 50.08443015 2.46377378 50.04388922 0.3347168 50.00048828 C-2.92848689 49.9376735 -6.1915349 49.89629071 -9.45507812 49.85546875 C-11.52346288 49.81642657 -13.59182398 49.77610539 -15.66015625 49.734375 C-16.63831802 49.72484802 -17.6164798 49.71532104 -18.62428284 49.70550537 C-19.53210007 49.68248352 -20.4399173 49.65946167 -21.37524414 49.63574219 C-22.17370255 49.62162292 -22.97216095 49.60750366 -23.79481506 49.59295654 C-26.39949315 49.0852691 -27.29106295 48.28908282 -28.875 46.1875 C-30.15079032 39.19295728 -26.62856087 34.76657285 -22.9375 29.1875 C-21.7410357 27.32626074 -20.54573027 25.46427604 -19.3515625 23.6015625 C-18.76020508 22.68793945 -18.16884766 21.77431641 -17.55957031 20.83300781 C-14.82718867 16.54198064 -12.27541558 12.14439728 -9.76782227 7.71875 C-7.23813712 3.38891671 -5.21058582 0.33982081 0 0 Z " fill="#FDB904" transform="translate(75.875,10.8125)"/>
<path d="M0 0 C1.30904297 0.00349709 1.30904297 0.00349709 2.64453125 0.00706482 C4.48707879 0.01679528 6.32959671 0.03856646 8.171875 0.0715332 C10.99003457 0.12091911 13.80644686 0.13301312 16.625 0.13867188 C18.41668521 0.15275953 20.20835528 0.16896453 22 0.1875 C22.84175781 0.1928627 23.68351562 0.1982254 24.55078125 0.20375061 C25.33839844 0.21973801 26.12601563 0.2357254 26.9375 0.25219727 C27.62714844 0.26283707 28.31679688 0.27347687 29.02734375 0.28443909 C31.37321808 0.61046263 32.98433368 1.32613066 35 2.55859375 C36.70520583 5.96900542 36.18493888 9.86392914 36.203125 13.6171875 C36.20882507 14.51728043 36.21452515 15.41737335 36.22039795 16.34474182 C36.22985201 18.25040509 36.23638354 20.15608475 36.24023438 22.06176758 C36.2499495 24.98092025 36.28097267 27.89937176 36.3125 30.81835938 C36.31902902 32.66796456 36.32427989 34.51757479 36.328125 36.3671875 C36.3404718 37.24225449 36.3528186 38.11732147 36.36553955 39.01890564 C36.36253845 39.83307449 36.35953735 40.64724335 36.35644531 41.48608398 C36.36191376 42.55958351 36.36191376 42.55958351 36.36749268 43.6547699 C35.88507991 46.15394605 34.99799565 47.02149761 33 48.55859375 C27.82598117 49.69054791 22.77115211 49.654367 17.51171875 49.5078125 C16.72730911 49.48894485 15.94289948 49.47007721 15.13471985 49.45063782 C13.49004246 49.40902623 11.8454407 49.36431977 10.20092773 49.31665039 C7.67771826 49.24581916 5.15449638 49.19180365 2.63085938 49.13867188 C1.02861845 49.09606989 -0.57359672 49.05248521 -2.17578125 49.0078125 C-2.93095535 48.99312424 -3.68612946 48.97843597 -4.46418762 48.96330261 C-9.77089377 48.78769998 -9.77089377 48.78769998 -12 46.55859375 C-13.27908289 38.93360927 -13.25232553 31.19720673 -13.29516602 23.48242188 C-13.30677989 22.02594359 -13.327377 20.56951085 -13.35668945 19.11328125 C-13.39935215 16.98538962 -13.41551807 14.85873461 -13.42578125 12.73046875 C-13.44036377 11.47331055 -13.45494629 10.21615234 -13.4699707 8.92089844 C-12.27016643 0.33715584 -7.47545152 -0.17346189 0 0 Z M-2 2.55859375 C-2 3.21859375 -2 3.87859375 -2 4.55859375 C-2.99 4.88859375 -3.98 5.21859375 -5 5.55859375 C-4.67 16.77859375 -4.34 27.99859375 -4 39.55859375 C-5.98 39.55859375 -7.96 39.55859375 -10 39.55859375 C-9.67 40.54859375 -9.34 41.53859375 -9 42.55859375 C3.87 42.22859375 16.74 41.89859375 30 41.55859375 C30.33 42.21859375 30.66 42.87859375 31 43.55859375 C31 42.89859375 31 42.23859375 31 41.55859375 C31.66 41.55859375 32.32 41.55859375 33 41.55859375 C33.07403712 36.32587806 33.12854783 31.09346574 33.16479492 25.86035156 C33.17990173 24.07937308 33.20038835 22.29843191 33.22631836 20.51757812 C33.26261943 17.96084397 33.27970688 15.40460065 33.29296875 12.84765625 C33.30845261 12.04864899 33.32393646 11.24964172 33.33988953 10.42642212 C33.37576435 7.94795227 33.37576435 7.94795227 33 4.55859375 C29.40555817 2.1622992 26.85138348 2.30078044 22.70703125 2.36328125 C22.00100266 2.36611115 21.29497406 2.36894104 20.56755066 2.37185669 C18.31569367 2.38303911 16.06423648 2.40813955 13.8125 2.43359375 C12.28451096 2.44362608 10.75651567 2.45275149 9.22851562 2.4609375 C5.48552337 2.48297203 1.74282944 2.51748808 -2 2.55859375 Z " fill="#FAD10D" transform="translate(34,72.44140625)"/>
<path d="M0 0 C1.65653354 4.96960061 -1.07231419 9.31847732 -3 14 C-2.34 14 -1.68 14 -1 14 C-0.61866701 15.9914056 -0.28674418 17.99279077 0 20 C-0.33 20.33 -0.66 20.66 -1 21 C-0.34 21.33 0.32 21.66 1 22 C1 21.01 1 20.02 1 19 C12.55 19.33 24.1 19.66 36 20 C36 20.33 36 20.66 36 21 C25.44 21 14.88 21 4 21 C4.33 22.32 4.66 23.64 5 25 C20.84 25.495 20.84 25.495 37 26 C37.33 23.69 37.66 21.38 38 19 C37.34 18.67 36.68 18.34 36 18 C35.505 16.515 35.505 16.515 35 15 C34.34 14.67 33.68 14.34 33 14 C32.5859375 11.93359375 32.5859375 11.93359375 32.375 9.4375 C32.30023438 8.61121094 32.22546875 7.78492188 32.1484375 6.93359375 C32.09945312 6.29550781 32.05046875 5.65742187 32 5 C37.28873359 9.90260923 43.33646204 17.56051299 43.625 25.0625 C43 28 43 28 41.75 29.875 C38.46703813 31.98547549 35.19783262 32.12170388 31.37084961 32.06933594 C30.45988022 32.05892273 29.54891083 32.04850952 28.6103363 32.03778076 C27.14612999 32.01134491 27.14612999 32.01134491 25.65234375 31.984375 C24.64410049 31.96787903 23.63585724 31.95138306 22.59706116 31.93438721 C20.4678913 31.89693015 18.33877378 31.85638922 16.2097168 31.81298828 C12.94651311 31.7501735 9.6834651 31.70879071 6.41992188 31.66796875 C4.35153712 31.62892657 2.28317602 31.58860539 0.21484375 31.546875 C-0.76331802 31.53734802 -1.7414798 31.52782104 -2.74928284 31.51800537 C-3.65710007 31.49498352 -4.5649173 31.47196167 -5.50024414 31.44824219 C-6.29870255 31.43412292 -7.09716095 31.42000366 -7.91981506 31.40545654 C-10.52321367 30.89801849 -11.41323103 30.09702976 -13 28 C-14.42726288 20.77917659 -10.34360877 15.90782186 -6.5 10.0625 C-5.56994141 8.6074707 -5.56994141 8.6074707 -4.62109375 7.12304688 C-3.09454722 4.73928575 -1.55412128 2.36583806 0 0 Z " fill="#F9B907" transform="translate(60,29)"/>
<path d="M0 0 C1.30904297 0.00349709 1.30904297 0.00349709 2.64453125 0.00706482 C4.48707879 0.01679528 6.32959671 0.03856646 8.171875 0.0715332 C10.99003457 0.12091911 13.80644686 0.13301312 16.625 0.13867188 C18.41668521 0.15275953 20.20835528 0.16896453 22 0.1875 C22.84175781 0.1928627 23.68351562 0.1982254 24.55078125 0.20375061 C25.33839844 0.21973801 26.12601563 0.2357254 26.9375 0.25219727 C27.62714844 0.26283707 28.31679688 0.27347687 29.02734375 0.28443909 C31.37321808 0.61046263 32.98433368 1.32613066 35 2.55859375 C36.70520583 5.96900542 36.18493888 9.86392914 36.203125 13.6171875 C36.20882507 14.51728043 36.21452515 15.41737335 36.22039795 16.34474182 C36.22985201 18.25040509 36.23638354 20.15608475 36.24023438 22.06176758 C36.2499495 24.98092025 36.28097267 27.89937176 36.3125 30.81835938 C36.31902902 32.66796456 36.32427989 34.51757479 36.328125 36.3671875 C36.3404718 37.24225449 36.3528186 38.11732147 36.36553955 39.01890564 C36.36253845 39.83307449 36.35953735 40.64724335 36.35644531 41.48608398 C36.36191376 42.55958351 36.36191376 42.55958351 36.36749268 43.6547699 C35.88507991 46.15394605 34.99799565 47.02149761 33 48.55859375 C27.82598117 49.69054791 22.77115211 49.654367 17.51171875 49.5078125 C16.72730911 49.48894485 15.94289948 49.47007721 15.13471985 49.45063782 C13.49004246 49.40902623 11.8454407 49.36431977 10.20092773 49.31665039 C7.67771826 49.24581916 5.15449638 49.19180365 2.63085938 49.13867188 C1.02861845 49.09606989 -0.57359672 49.05248521 -2.17578125 49.0078125 C-2.93095535 48.99312424 -3.68612946 48.97843597 -4.46418762 48.96330261 C-9.77089377 48.78769998 -9.77089377 48.78769998 -12 46.55859375 C-13.27908289 38.93360927 -13.25232553 31.19720673 -13.29516602 23.48242188 C-13.30677989 22.02594359 -13.327377 20.56951085 -13.35668945 19.11328125 C-13.39935215 16.98538962 -13.41551807 14.85873461 -13.42578125 12.73046875 C-13.44036377 11.47331055 -13.45494629 10.21615234 -13.4699707 8.92089844 C-12.27016643 0.33715584 -7.47545152 -0.17346189 0 0 Z M-10.01293945 3.54345703 C-11.32095643 7.53900727 -11.43020616 11.10853352 -11.3984375 15.2890625 C-11.40130768 16.12069412 -11.40417786 16.95232574 -11.40713501 17.80915833 C-11.40917011 19.55987228 -11.40367905 21.31060926 -11.39111328 23.0612793 C-11.37499009 25.74774502 -11.39101136 28.43272022 -11.41015625 31.11914062 C-11.40817491 32.82161791 -11.40433351 34.52409427 -11.3984375 36.2265625 C-11.40451019 37.03175827 -11.41058289 37.83695404 -11.4168396 38.66654968 C-11.42036297 41.15808475 -11.42036297 41.15808475 -11 44.55859375 C-7.11506838 47.14854816 -3.89432764 46.81084917 0.60546875 46.75390625 C1.44467361 46.75107635 2.28387848 46.74824646 3.14851379 46.74533081 C5.82832103 46.7341376 8.50779381 46.70903476 11.1875 46.68359375 C13.00455246 46.67356283 14.82161017 46.66443718 16.63867188 46.65625 C21.09257675 46.63420109 25.54623167 46.59967726 30 46.55859375 C30.33 44.90859375 30.66 43.25859375 31 41.55859375 C31.66 41.55859375 32.32 41.55859375 33 41.55859375 C33 29.34859375 33 17.13859375 33 4.55859375 C32.01 4.22859375 31.02 3.89859375 30 3.55859375 C30 2.89859375 30 2.23859375 30 1.55859375 C24.64323369 1.43506086 19.28729474 1.34428802 13.92944336 1.28393555 C12.10670533 1.25877978 10.28406828 1.2246509 8.46166992 1.18139648 C5.84268307 1.12078829 3.22502847 1.09239614 0.60546875 1.0703125 C-0.21025101 1.04450607 -1.02597076 1.01869965 -1.8664093 0.99211121 C-5.41052065 0.99035139 -7.4285901 0.99515378 -10.01293945 3.54345703 Z " fill="#F8DA3F" transform="translate(34,72.44140625)"/>
<path d="M0 0 C1.96076084 1.43605019 3.85874049 2.86411941 5.65625 4.5 C5.65625 4.83 5.65625 5.16 5.65625 5.5 C3.34625 5.17 1.03625 4.84 -1.34375 4.5 C-1.34375 3.51 -1.34375 2.52 -1.34375 1.5 C-9.22691434 -1.50311022 -18.91753739 -1.97106176 -26.96875 0.6875 C-30.52431136 2.59696814 -32.25366847 4.0722663 -34.34375 7.5 C-34.68602417 8.83106622 -35.02126743 10.16400079 -35.34375 11.5 C-36.33375 12.16 -37.32375 12.82 -38.34375 13.5 C-38.67932024 16.28432601 -38.81646051 18.77850237 -38.78125 21.5625 C-38.77750366 22.71407593 -38.77750366 22.71407593 -38.77368164 23.88891602 C-38.64757879 29.18355428 -37.81877397 33.29213048 -35.12109375 37.93359375 C-34.86457031 38.45050781 -34.60804687 38.96742187 -34.34375 39.5 C-34.67375 40.16 -35.00375 40.82 -35.34375 41.5 C-41.18193088 35.05786937 -42.87877298 28.76882849 -42.640625 20.18359375 C-42.19912093 16.19262937 -41.01061698 13.1542853 -39.34375 9.5 C-39.0653125 8.84 -38.786875 8.18 -38.5 7.5 C-35.27879213 1.92818098 -28.4047613 -2.14280135 -22.37109375 -4.06640625 C-14.43639617 -5.76342249 -6.83265389 -4.37289849 0 0 Z " fill="#F2BE78" transform="translate(122.34375,74.5)"/>
<path d="M0 0 C0.66 0.66 1.32 1.32 2 2 C1.34 3.98 0.68 5.96 0 8 C-10.89 8 -21.78 8 -33 8 C-33 6.35 -33 4.7 -33 3 C-22.44 3 -11.88 3 -1 3 C-0.67 2.01 -0.34 1.02 0 0 Z " fill="#FBB704" transform="translate(97,47)"/>
<path d="M0 0 C1.30904297 0.00349709 1.30904297 0.00349709 2.64453125 0.00706482 C4.48707879 0.01679528 6.32959671 0.03856646 8.171875 0.0715332 C10.99003457 0.12091911 13.80644686 0.13301312 16.625 0.13867188 C18.41668521 0.15275953 20.20835528 0.16896453 22 0.1875 C22.84175781 0.1928627 23.68351562 0.1982254 24.55078125 0.20375061 C25.33839844 0.21973801 26.12601563 0.2357254 26.9375 0.25219727 C27.62714844 0.26283707 28.31679688 0.27347687 29.02734375 0.28443909 C31.33275956 0.60483981 32.98183112 1.42490812 35 2.55859375 C34.67 3.21859375 34.34 3.87859375 34 4.55859375 C33.27925293 4.07640381 33.27925293 4.07640381 32.54394531 3.58447266 C28.86174287 2.09957682 25.21171574 2.20032135 21.296875 2.14453125 C20.45908508 2.1251651 19.62129517 2.10579895 18.75811768 2.08584595 C16.08884787 2.02618651 13.41953461 1.97971962 10.75 1.93359375 C8.93748146 1.89540139 7.12498082 1.85634893 5.3125 1.81640625 C0.87514585 1.72049623 -3.56229325 1.63641495 -8 1.55859375 C-10.32312026 6.16512773 -10.27572747 10.25570297 -10.23046875 15.2890625 C-10.23001053 16.12069412 -10.22955231 16.95232574 -10.2290802 17.80915833 C-10.22606864 19.55987991 -10.21821529 21.31059907 -10.20581055 23.0612793 C-10.18749158 25.74732899 -10.18530146 28.43303481 -10.18554688 31.11914062 C-10.18063356 32.82161758 -10.17480606 34.52409219 -10.16796875 36.2265625 C-10.16629951 37.43435616 -10.16629951 37.43435616 -10.16459656 38.66654968 C-10.22651688 42.74420027 -10.22651688 42.74420027 -9 46.55859375 C4.86 46.88859375 18.72 47.21859375 33 47.55859375 C29.01564153 50.21483273 25.63690724 49.74551935 21.02734375 49.60546875 C19.70906334 49.57504486 19.70906334 49.57504486 18.364151 49.54400635 C16.50720282 49.49844668 14.65037626 49.44767603 12.79370117 49.39208984 C9.94531282 49.30882214 7.09701929 49.24702269 4.24804688 49.1875 C2.44527855 49.14061063 0.64254209 49.09247587 -1.16015625 49.04296875 C-2.44298241 49.01623077 -2.44298241 49.01623077 -3.75172424 48.98895264 C-9.76993263 48.78866112 -9.76993263 48.78866112 -12 46.55859375 C-13.27908289 38.93360927 -13.25232553 31.19720673 -13.29516602 23.48242188 C-13.30677989 22.02594359 -13.327377 20.56951085 -13.35668945 19.11328125 C-13.39935215 16.98538962 -13.41551807 14.85873461 -13.42578125 12.73046875 C-13.44036377 11.47331055 -13.45494629 10.21615234 -13.4699707 8.92089844 C-12.27016643 0.33715584 -7.47545152 -0.17346189 0 0 Z " fill="#FBF09C" transform="translate(34,72.44140625)"/>
<path d="M0 0 C5.28873359 4.90260923 11.33646204 12.56051299 11.625 20.0625 C11 23 11 23 9.75 24.875 C6.45330044 26.99430686 3.19659688 27.11885399 -0.64501953 27.03759766 C-1.55921661 27.02072906 -2.4734137 27.00386047 -3.41531372 26.98648071 C-4.39458832 26.9625827 -5.37386292 26.93868469 -6.3828125 26.9140625 C-7.39342743 26.89282318 -8.40404236 26.87158386 -9.44528198 26.84970093 C-11.57865196 26.80349127 -13.71196463 26.75456736 -15.84521484 26.703125 C-19.11934586 26.62513468 -22.39357396 26.55805883 -25.66796875 26.4921875 C-27.739598 26.44596535 -29.81121329 26.39911201 -31.8828125 26.3515625 C-33.35779709 26.32178818 -33.35779709 26.32178818 -34.86257935 26.29141235 C-35.77047211 26.26823944 -36.67836487 26.24506653 -37.61376953 26.22119141 C-38.41444855 26.20263092 -39.21512756 26.18407043 -40.04006958 26.16494751 C-42 26 -42 26 -44 25 C-44 24.34 -44 23.68 -44 23 C-43.01 23.33 -42.02 23.66 -41 24 C-39.41966808 24.08705429 -37.83589622 24.11767952 -36.25317383 24.11352539 C-35.29240433 24.11344986 -34.33163483 24.11337433 -33.3417511 24.11329651 C-32.30729355 24.10813522 -31.272836 24.10297394 -30.20703125 24.09765625 C-29.14586594 24.0962413 -28.08470062 24.09482635 -26.99137878 24.09336853 C-23.59839065 24.08776606 -20.20546823 24.07521314 -16.8125 24.0625 C-14.51367283 24.05748532 -12.21484462 24.05292236 -9.91601562 24.04882812 C-4.27731838 24.03779583 1.36132966 24.02052952 7 24 C7.33 20.7 7.66 17.4 8 14 C6.68 13.67 5.36 13.34 4 13 C3.505 11.515 3.505 11.515 3 10 C2.34 9.67 1.68 9.34 1 9 C0.5859375 6.93359375 0.5859375 6.93359375 0.375 4.4375 C0.30023438 3.61121094 0.22546875 2.78492188 0.1484375 1.93359375 C0.09945312 1.29550781 0.05046875 0.65742187 0 0 Z " fill="#FEE291" transform="translate(92,34)"/>
<path d="M0 0 C12.54 0 25.08 0 38 0 C38 0.99 38 1.98 38 3 C25.46 3 12.92 3 0 3 C0 2.01 0 1.02 0 0 Z " fill="#FED200" transform="translate(26,116)"/>
<path d="M0 0 C2.875 0.9375 2.875 0.9375 4.25 3 C4.45625 3.639375 4.6625 4.27875 4.875 4.9375 C1.905 4.4425 1.905 4.4425 -1.125 3.9375 C-1.455 5.5875 -1.785 7.2375 -2.125 8.9375 C-3.094375 9.205625 -4.06375 9.47375 -5.0625 9.75 C-6.073125 10.141875 -7.08375 10.53375 -8.125 10.9375 C-8.455 11.9275 -8.785 12.9175 -9.125 13.9375 C-10.115 13.9375 -11.105 13.9375 -12.125 13.9375 C-12.125 15.2575 -12.125 16.5775 -12.125 17.9375 C-13.115 17.9375 -14.105 17.9375 -15.125 17.9375 C-13.77753552 14.35709438 -12.19417169 11.1065111 -10.25 7.8125 C-9.75757812 6.96429687 -9.26515625 6.11609375 -8.7578125 5.2421875 C-6.20826386 1.64354229 -4.49550372 -0.08991007 0 0 Z " fill="#F7CE53" transform="translate(76.125,11.0625)"/>
<path d="M0 0 C0.33 0 0.66 0 1 0 C1.02578125 0.97839844 1.0515625 1.95679687 1.078125 2.96484375 C1.38385156 10.03129629 1.76663813 16.04305179 5.2578125 22.36328125 C5.50273438 22.90339844 5.74765625 23.44351563 6 24 C5.67 24.66 5.34 25.32 5 26 C-1.03928728 19.33595886 -2.33761391 13.13559505 -2.30078125 4.3203125 C-2 2 -2 2 0 0 Z " fill="#F0B768" transform="translate(82,90)"/>
<path d="M0 0 C5.49294466 4.67917508 9.02139152 10.89731748 9.8125 18.0625 C9.874375 19.361875 9.93625 20.66125 10 22 C9.34 22.33 8.68 22.66 8 23 C8 20.03 8 17.06 8 14 C6.68 13.67 5.36 13.34 4 13 C3.67 12.01 3.34 11.02 3 10 C2.34 9.67 1.68 9.34 1 9 C0.5859375 6.93359375 0.5859375 6.93359375 0.375 4.4375 C0.30023438 3.61121094 0.22546875 2.78492188 0.1484375 1.93359375 C0.09945312 1.29550781 0.05046875 0.65742187 0 0 Z " fill="#F3CE5A" transform="translate(92,34)"/>
<path d="M0 0 C-7.7929 3.59672307 -15.40786641 4.22456896 -23.75 2 C-24.86375 1.505 -24.86375 1.505 -26 1 C-21.47311149 -0.41327251 -16.98069593 -0.02539946 -12.2890625 0.0625 C-8.99435693 0.08379205 -8.99435693 0.08379205 -5.7734375 -0.5625 C-3 -1 -3 -1 0 0 Z " fill="#F3B366" transform="translate(121,121)"/>
<path d="M0 0 C0 0.66 0 1.32 0 2 C-0.763125 2.45375 -1.52625 2.9075 -2.3125 3.375 C-5.06709284 5.04056777 -6.3480993 6.27436384 -8 9 C-8.103125 9.639375 -8.20625 10.27875 -8.3125 10.9375 C-9.44786341 14.34359023 -12.19473937 15.85128973 -15 18 C-13.81893386 9.96875022 -10.34391585 6.08848789 -4.05859375 1.3203125 C-2 0 -2 0 0 0 Z " fill="#F2C47C" transform="translate(96,73)"/>
<path d="M0 0 C1.21236328 0.01353516 1.21236328 0.01353516 2.44921875 0.02734375 C3.37154297 0.04474609 3.37154297 0.04474609 4.3125 0.0625 C4.3125 0.3925 4.3125 0.7225 4.3125 1.0625 C3.36375 1.35125 2.415 1.64 1.4375 1.9375 C-1.73961578 2.83075109 -1.73961578 2.83075109 -3.6875 5.0625 C-3.0275 6.3825 -2.3675 7.7025 -1.6875 9.0625 C-4.60267292 7.98848892 -6.46560176 7.28439824 -8.6875 5.0625 C-8.5 3 -8.5 3 -7.6875 1.0625 C-4.80538698 0.10179566 -2.98899956 -0.04331883 0 0 Z " fill="#F59D30" transform="translate(96.6875,111.9375)"/>
<path d="M0 0 C3.16326376 2.90882733 5.21466613 5.78479699 7.25 9.5625 C8.03117187 10.98755859 8.03117187 10.98755859 8.828125 12.44140625 C10 15 10 15 10 18 C9.60167969 17.51789062 9.20335938 17.03578125 8.79296875 16.5390625 C8.26316406 15.90742188 7.73335938 15.27578125 7.1875 14.625 C6.66542969 13.99851562 6.14335938 13.37203125 5.60546875 12.7265625 C3.91774261 10.7778952 3.91774261 10.7778952 1 9 C1.66 9 2.32 9 3 9 C2.01 6.03 1.02 3.06 0 0 Z " fill="#FBDD7E" transform="translate(81,16)"/>
<path d="M0 0 C2.11176066 3.42778542 2.11176066 3.42778542 1.609375 6 C1.32578125 6.66 1.0421875 7.32 0.75 8 C0.45996094 8.6909375 0.16992188 9.381875 -0.12890625 10.09375 C-1.04063212 12.08891693 -1.95492892 14.07063801 -3 16 C-4.65 16 -6.3 16 -8 16 C-8 15.34 -8 14.68 -8 14 C-6.576875 12.9790625 -6.576875 12.9790625 -5.125 11.9375 C-1.07722978 8.76801954 -0.61938935 4.9017192 0 0 Z " fill="#F9B713" transform="translate(80,16)"/>
<path d="M0 0 C1.28019391 3.84058173 0.60131965 5.3398408 -1 9 C-3.0625 10.6875 -3.0625 10.6875 -5 12 C-5.33 12.99 -5.66 13.98 -6 15 C-6.66 15 -7.32 15 -8 15 C-6.62712658 11.30123909 -4.93644547 8.0485524 -2.875 4.6875 C-2.33617187 3.80449219 -1.79734375 2.92148437 -1.2421875 2.01171875 C-0.83226562 1.34785156 -0.42234375 0.68398438 0 0 Z " fill="#F9DC78" transform="translate(60,29)"/>
<path d="M0 0 C1.33332095 2.6666419 0.67102033 4.16680303 0 7 C-0.99 7 -1.98 7 -3 7 C-3 8.98 -3 10.96 -3 13 C-3.33 13 -3.66 13 -4 13 C-4.45732667 7.28341664 -3.52273754 4.51350747 0 0 Z " fill="#F8E5A2" transform="translate(51,44)"/>
<path d="M0 0 C1.32 0 2.64 0 4 0 C3.1875 2.4375 3.1875 2.4375 2 5 C1.01 5.33 0.02 5.66 -1 6 C-1.042721 4.33388095 -1.04063832 2.66617115 -1 1 C-0.67 0.67 -0.34 0.34 0 0 Z " fill="#F4B45D" transform="translate(125,112)"/>
<path d="M0 0 C0.66 0.66 1.32 1.32 2 2 C1.63910592 5.48864279 -0.1410422 8.09032693 -2 11 C-2.625 9.125 -2.625 9.125 -3 7 C-2.34 6.34 -1.68 5.68 -1 5 C-0.35232207 2.42938689 -0.35232207 2.42938689 0 0 Z " fill="#FCB311" transform="translate(60,32)"/>
<path d="M0 0 C0.66 0 1.32 0 2 0 C1.34 2.64 0.68 5.28 0 8 C-0.66 8 -1.32 8 -2 8 C-2.20086443 4.28400809 -2.1519437 3.22791555 0 0 Z " fill="#EFB46F" transform="translate(131,104)"/>
<path d="M0 0 C0.66 0 1.32 0 2 0 C1.37240135 2.92879371 0.41377341 5.36095629 -1 8 C-1.66 8 -2.32 8 -3 8 C-3 6.68 -3 5.36 -3 4 C-2.34 3.67 -1.68 3.34 -1 3 C-0.67 2.01 -0.34 1.02 0 0 Z " fill="#FFB316" transform="translate(75,16)"/>
<path d="M0 0 C4.875 1.75 4.875 1.75 6 4 C3.69 3.67 1.38 3.34 -1 3 C-0.67 2.01 -0.34 1.02 0 0 Z " fill="#F1B261" transform="translate(122,76)"/>
<path d="M0 0 C0.33 1.32 0.66 2.64 1 4 C0.34 4 -0.32 4 -1 4 C-1 5.32 -1 6.64 -1 8 C-1.99 8 -2.98 8 -4 8 C-2.87548273 5.0280615 -1.77706209 2.66559313 0 0 Z " fill="#F8DF8A" transform="translate(65,21)"/>
</svg>
